<svg xmlns="http://www.w3.org/2000/svg" xmlns:xlink="http://www.w3.org/1999/xlink" width="500" zoomAndPan="magnify" viewBox="0 0 375 374.999991" height="500" preserveAspectRatio="xMidYMid meet" version="1.2"><defs><clipPath id="0e045efc54"><path d="M 0 61.703125 L 295 61.703125 L 295 262 L 0 262 Z M 0 61.703125 "/></clipPath></defs><g id="a93e525d4a"><path style=" stroke:none;fill-rule:nonzero;fill:#ffe9e9;fill-opacity:1;" d="M 327.207031 295.898438 C 340.875 258.984375 354.640625 216.492188 365.519531 178.710938 C 372.449219 154.679688 368.40625 144.394531 342.320312 136.03125 C 271.761719 113.632812 199.660156 96.519531 127.65625 79.503906 C 108.691406 74.984375 102.914062 79.503906 98.101562 94.308594 C 92.324219 112.285156 63.445312 214.378906 72.109375 231.007812 C 80.390625 246.679688 320.855469 312.914062 327.207031 295.898438 Z M 327.207031 295.898438 "/><path style=" stroke:none;fill-rule:nonzero;fill:#592525;fill-opacity:1;" d="M 332.789062 297.4375 C 341.261719 274.652344 349.058594 251.582031 356.46875 228.414062 C 360.226562 216.78125 363.785156 205.148438 367.253906 193.515625 C 370.042969 184.097656 373.414062 174.578125 374.28125 164.675781 C 374.859375 157.660156 373.414062 150.640625 369.082031 145.066406 C 364.074219 138.53125 356.375 134.972656 348.867188 132.183594 C 343.28125 130.164062 337.605469 128.53125 331.921875 126.707031 C 325.761719 124.78125 319.699219 122.957031 313.539062 121.128906 C 301.121094 117.476562 288.703125 113.917969 276.285156 110.554688 C 251.351562 103.730469 226.324219 97.382812 201.296875 91.230469 C 188.78125 88.15625 176.171875 85.078125 163.65625 82.101562 C 157.398438 80.65625 151.238281 79.121094 144.980469 77.675781 C 138.917969 76.234375 132.851562 74.601562 126.691406 73.351562 C 118.703125 71.71875 109.460938 70.851562 102.625 76.140625 C 96.945312 80.464844 94.445312 87.386719 92.324219 93.925781 C 89.339844 103.25 86.742188 112.765625 84.238281 122.1875 C 80.390625 136.320312 76.828125 150.449219 73.652344 164.675781 C 70.472656 178.710938 67.585938 192.84375 65.949219 207.167969 C 65.371094 212.261719 64.890625 217.359375 64.988281 222.453125 C 65.082031 226.300781 65.46875 230.625 67.488281 234.085938 C 68.742188 236.199219 70.859375 237.738281 72.878906 238.988281 C 75 240.429688 77.40625 241.582031 79.714844 242.640625 C 87.320312 246.292969 95.308594 249.273438 103.300781 252.160156 C 113.601562 255.90625 124.09375 259.367188 134.488281 262.636719 C 146.714844 266.480469 159.035156 270.136719 171.359375 273.597656 C 184.351562 277.25 197.347656 280.804688 210.441406 284.171875 C 223.050781 287.4375 235.757812 290.515625 248.558594 293.398438 C 259.726562 295.898438 270.988281 298.300781 282.347656 300.320312 C 291.492188 301.953125 300.636719 303.398438 309.878906 304.070312 C 312.960938 304.261719 315.945312 304.457031 319.023438 304.359375 C 321.527344 304.261719 324.222656 304.070312 326.628906 303.300781 C 329.324219 302.242188 331.539062 300.511719 332.789062 297.4375 C 333.847656 294.648438 331.636719 290.996094 328.746094 290.324219 C 325.476562 289.554688 322.777344 291.285156 321.625 294.359375 C 321.527344 294.554688 322.488281 292.535156 322.007812 293.304688 C 321.527344 294.074219 323.066406 291.957031 322.683594 292.535156 C 322.585938 292.628906 322.488281 292.726562 322.394531 292.824219 C 322.105469 293.109375 324.03125 291.765625 323.164062 292.148438 C 323.066406 292.246094 322.875 292.339844 322.777344 292.339844 C 321.914062 292.917969 323.550781 292.054688 323.644531 292.054688 C 323.261719 292.148438 322.875 292.339844 322.585938 292.4375 C 322.199219 292.535156 321.71875 292.628906 321.335938 292.726562 C 321.144531 292.726562 320.855469 292.824219 320.660156 292.824219 C 323.164062 292.339844 321.914062 292.628906 321.335938 292.726562 C 320.082031 292.824219 318.929688 292.917969 317.675781 292.917969 C 314.5 292.917969 311.421875 292.726562 308.242188 292.4375 C 306.316406 292.246094 304.488281 292.054688 302.5625 291.859375 C 301.503906 291.765625 300.445312 291.574219 299.386719 291.476562 C 299.289062 291.476562 301.121094 291.765625 300.347656 291.574219 C 300.253906 291.574219 300.058594 291.574219 299.964844 291.476562 C 299.675781 291.476562 299.484375 291.378906 299.195312 291.378906 C 298.617188 291.285156 298.039062 291.1875 297.558594 291.1875 C 287.449219 289.746094 277.34375 287.824219 267.234375 285.707031 C 255.203125 283.210938 243.167969 280.421875 231.234375 277.535156 C 218.429688 274.460938 205.722656 271.191406 193.015625 267.730469 C 180.40625 264.269531 167.796875 260.714844 155.183594 256.964844 C 143.828125 253.601562 132.5625 250.042969 121.300781 246.292969 C 112.253906 243.3125 103.300781 240.140625 94.445312 236.585938 C 93.480469 236.199219 92.613281 235.816406 91.652344 235.429688 C 91.265625 235.238281 90.785156 235.046875 90.402344 234.949219 C 90.785156 235.144531 91.941406 235.621094 90.976562 235.238281 C 90.785156 235.144531 90.496094 235.046875 90.304688 234.949219 C 88.765625 234.277344 87.222656 233.605469 85.78125 232.933594 C 83.46875 231.875 81.0625 230.625 78.847656 229.277344 C 78.464844 228.988281 78.078125 228.796875 77.597656 228.507812 C 77.40625 228.414062 77.210938 228.222656 77.117188 228.125 C 76.925781 228.027344 78.558594 229.375 77.789062 228.605469 C 77.5 228.414062 77.308594 228.125 77.019531 227.933594 C 76.925781 227.835938 76.828125 227.742188 76.730469 227.644531 C 76.25 227.164062 77.789062 229.277344 77.308594 228.414062 C 77.210938 228.316406 77.210938 228.125 77.117188 228.027344 C 76.441406 226.972656 77.695312 229.664062 77.308594 228.414062 C 77.117188 227.742188 76.925781 227.066406 76.730469 226.394531 C 76.636719 226.011719 76.636719 225.722656 76.539062 225.335938 C 76.347656 224.28125 76.730469 226.875 76.636719 226.105469 C 76.636719 225.816406 76.539062 225.53125 76.539062 225.335938 C 76.441406 224.375 76.347656 223.414062 76.347656 222.453125 C 76.25 217.453125 76.636719 212.359375 77.308594 207.359375 C 77.40625 206.6875 77.5 205.917969 77.597656 205.246094 C 77.695312 204.765625 77.886719 203.417969 77.597656 205.4375 C 77.695312 205.054688 77.695312 204.574219 77.789062 204.1875 C 77.984375 202.648438 78.273438 201.015625 78.464844 199.476562 C 78.945312 196.210938 79.523438 192.84375 80.195312 189.574219 C 82.890625 175.058594 86.261719 160.734375 89.824219 146.414062 C 92.902344 134.011719 96.273438 121.707031 99.738281 109.496094 C 100.894531 105.652344 101.953125 101.710938 103.203125 97.867188 C 103.394531 97.289062 103.589844 96.617188 103.78125 96.039062 C 104.070312 95.078125 104.359375 94.210938 104.742188 93.25 C 104.9375 92.867188 105.03125 92.386719 105.226562 92 C 105.320312 91.808594 105.417969 91.617188 105.515625 91.425781 C 105.03125 92.960938 105.226562 92 105.417969 91.617188 C 106.089844 90.175781 106.863281 88.734375 107.726562 87.386719 C 107.824219 87.195312 108.691406 86.136719 108.015625 87.003906 C 107.34375 87.867188 108.113281 86.90625 108.304688 86.714844 C 108.785156 86.234375 109.269531 85.753906 109.847656 85.273438 C 110.421875 84.695312 109.269531 85.753906 109.269531 85.753906 C 109.363281 85.753906 109.558594 85.558594 109.652344 85.464844 C 109.941406 85.273438 110.230469 85.078125 110.519531 84.984375 C 110.808594 84.792969 111.097656 84.695312 111.386719 84.503906 C 112.058594 84.117188 109.847656 85.078125 111.289062 84.597656 C 111.964844 84.40625 112.636719 84.214844 113.3125 84.023438 C 113.503906 83.925781 114.949219 83.734375 113.792969 83.925781 C 112.636719 84.117188 114.175781 83.925781 114.464844 83.925781 C 116.390625 83.832031 118.21875 83.925781 120.144531 84.117188 C 120.339844 84.117188 120.722656 84.214844 120.914062 84.214844 C 120.820312 84.214844 119.472656 84.023438 120.53125 84.214844 C 121.109375 84.3125 121.589844 84.40625 122.167969 84.503906 C 123.417969 84.695312 124.574219 84.984375 125.824219 85.273438 C 138.050781 88.058594 150.277344 91.039062 162.5 94.019531 C 187.144531 99.882812 211.789062 105.941406 236.335938 112.1875 C 260.976562 118.535156 285.523438 125.167969 309.878906 132.378906 C 321.527344 135.835938 333.367188 139.105469 344.824219 143.238281 C 345.882812 143.625 346.84375 144.007812 347.902344 144.394531 C 348.191406 144.488281 348.386719 144.585938 348.578125 144.683594 C 349.636719 145.066406 348.289062 144.488281 348.289062 144.585938 C 348.386719 144.488281 349.828125 145.257812 349.925781 145.355469 C 351.5625 146.125 353.199219 146.988281 354.835938 147.949219 C 355.507812 148.335938 356.183594 148.816406 356.855469 149.296875 C 357.046875 149.394531 357.144531 149.488281 357.335938 149.679688 C 357.914062 150.066406 356.277344 148.816406 356.855469 149.296875 C 357.144531 149.585938 357.53125 149.777344 357.820312 150.066406 C 358.394531 150.546875 358.875 151.027344 359.359375 151.507812 C 359.550781 151.796875 359.839844 151.988281 360.03125 152.277344 C 360.128906 152.371094 360.226562 152.566406 360.320312 152.660156 C 360.898438 153.335938 359.550781 151.605469 359.9375 152.179688 C 360.707031 153.335938 361.378906 154.488281 361.957031 155.640625 C 362.246094 156.3125 361.378906 154.199219 361.863281 155.449219 C 361.957031 155.738281 362.054688 156.027344 362.152344 156.410156 C 362.34375 157.179688 362.535156 157.851562 362.726562 158.621094 C 362.824219 158.910156 362.824219 159.292969 362.921875 159.679688 C 362.921875 159.679688 362.726562 158.042969 362.824219 158.910156 C 362.824219 159.101562 362.824219 159.292969 362.921875 159.488281 C 363.015625 160.253906 363.015625 160.929688 363.015625 161.699219 C 363.015625 163.429688 362.921875 165.0625 362.726562 166.792969 C 362.632812 167.753906 362.921875 165.351562 362.726562 166.886719 C 362.632812 167.371094 362.632812 167.753906 362.535156 168.234375 C 362.34375 169.195312 362.152344 170.15625 361.957031 171.214844 C 361.476562 173.328125 360.996094 175.347656 360.417969 177.367188 C 358.875 182.847656 357.242188 188.328125 355.605469 193.804688 C 348.671875 216.972656 341.261719 240.046875 333.367188 262.925781 C 329.710938 273.597656 325.859375 284.363281 322.007812 294.9375 C 320.949219 297.726562 323.164062 301.378906 326.050781 302.050781 C 328.941406 302.148438 331.632812 300.417969 332.789062 297.4375 Z M 332.789062 297.4375 "/><path style=" stroke:none;fill-rule:nonzero;fill:#592525;fill-opacity:1;" d="M 359.457031 148.429688 C 345.59375 157.949219 331.441406 167.175781 317.097656 175.828125 C 302.757812 184.578125 288.125 192.84375 273.203125 200.726562 C 264.828125 205.148438 256.359375 209.476562 247.789062 213.707031 C 245.09375 215.050781 244.132812 219.089844 245.671875 221.589844 C 247.5 224.375 250.675781 225.046875 253.566406 223.703125 C 268.679688 216.300781 283.601562 208.515625 298.230469 200.246094 C 312.863281 191.980469 327.304688 183.328125 341.453125 174.195312 C 349.445312 169.101562 357.335938 163.8125 365.230469 158.429688 C 367.734375 156.699219 369.082031 153.335938 367.347656 150.546875 C 365.808594 148.046875 362.152344 146.605469 359.457031 148.429688 Z M 359.457031 148.429688 "/><path style=" stroke:none;fill-rule:nonzero;fill:#ffe9e9;fill-opacity:1;" d="M 287.929688 218.703125 C 288.703125 179.386719 288.125 140.066406 286.296875 100.75 C 285.140625 75.753906 278.015625 67.296875 250.582031 67.871094 C 176.554688 69.3125 102.820312 76.332031 29.175781 83.347656 C 9.730469 85.175781 5.6875 91.328125 5.976562 106.902344 C 6.652344 148.816406 10.308594 190.730469 17.046875 232.164062 C 18.105469 238.796875 19.167969 246.199219 24.363281 250.523438 C 40.152344 263.789062 220.835938 248.21875 263.480469 244.46875 C 283.3125 242.640625 287.546875 236.296875 287.929688 218.703125 Z M 287.929688 218.703125 "/><g clip-rule="nonzero" clip-path="url(#0e045efc54)"><path style=" stroke:none;fill-rule:nonzero;fill:#592525;fill-opacity:1;" d="M 293.707031 218.703125 C 294.09375 197.265625 294.09375 175.828125 293.804688 154.390625 C 293.613281 143.722656 293.324219 133.050781 292.9375 122.378906 C 292.648438 112.957031 292.550781 103.441406 291.492188 94.019531 C 290.820312 87.964844 289.664062 81.8125 286.679688 76.332031 C 284.179688 71.8125 280.132812 67.96875 275.320312 65.851562 C 269.160156 63.160156 262.519531 62.296875 255.875 62.007812 C 245.960938 61.71875 236.046875 62.296875 226.128906 62.679688 C 204.761719 63.449219 183.390625 64.605469 162.019531 66.046875 C 140.648438 67.488281 119.375 69.21875 98.003906 71.042969 C 76.730469 72.871094 55.554688 74.890625 34.375 76.910156 C 26.480469 77.675781 18.203125 78.0625 11.082031 81.8125 C 5.882812 84.597656 2.417969 89.5 1.070312 95.171875 C 0.394531 98.347656 0.105469 101.519531 0.105469 104.785156 C 0.105469 109.691406 0.296875 114.59375 0.394531 119.398438 C 0.683594 129.972656 1.261719 140.644531 1.933594 151.21875 C 3.378906 172.65625 5.59375 194 8.578125 215.339844 C 9.347656 220.53125 10.117188 225.722656 10.886719 231.007812 C 11.5625 235.238281 12.042969 239.46875 13.390625 243.507812 C 15.027344 248.601562 18.105469 254.082031 23.113281 256.386719 C 28.695312 258.886719 34.855469 259.558594 40.921875 260.136719 C 49.296875 260.90625 57.671875 261.195312 66.140625 261.195312 C 76.925781 261.292969 87.707031 261.097656 98.390625 260.808594 C 110.519531 260.425781 122.648438 259.945312 134.777344 259.273438 C 147.195312 258.601562 159.613281 257.832031 172.03125 257.0625 C 183.871094 256.292969 195.617188 255.425781 207.457031 254.5625 C 217.5625 253.792969 227.769531 253.023438 237.875 252.160156 C 245.289062 251.582031 252.699219 250.910156 260.113281 250.234375 C 270.988281 249.273438 284.5625 248.023438 290.050781 236.875 C 293.035156 231.394531 293.515625 224.953125 293.707031 218.703125 C 293.804688 215.722656 291.011719 212.839844 287.929688 212.9375 C 284.753906 213.03125 282.253906 215.4375 282.15625 218.703125 C 282.15625 220.339844 282.058594 221.972656 281.964844 223.605469 C 281.867188 224.375 281.867188 225.046875 281.769531 225.816406 C 281.675781 226.875 281.964844 224.472656 281.769531 225.433594 C 281.675781 225.816406 281.675781 226.203125 281.578125 226.585938 C 281.386719 227.835938 281.097656 229.085938 280.617188 230.242188 C 280.519531 230.527344 280.421875 230.816406 280.328125 231.105469 C 279.941406 232.164062 280.90625 229.953125 280.519531 230.722656 C 280.230469 231.203125 280.039062 231.683594 279.75 232.164062 C 279.460938 232.644531 279.074219 233.027344 278.882812 233.507812 C 279.074219 233.21875 279.84375 232.355469 279.269531 233.027344 C 279.074219 233.21875 278.882812 233.507812 278.691406 233.703125 C 278.304688 234.085938 277.921875 234.46875 277.535156 234.757812 C 276.863281 235.335938 278.691406 233.988281 277.917969 234.46875 C 277.632812 234.664062 277.4375 234.855469 277.152344 235.046875 C 276.667969 235.335938 276.1875 235.625 275.609375 235.910156 C 275.417969 236.007812 275.128906 236.105469 274.9375 236.296875 C 273.683594 236.875 275.800781 236.007812 275.03125 236.199219 C 273.683594 236.679688 272.433594 237.066406 271.085938 237.449219 C 270.316406 237.644531 269.546875 237.835938 268.777344 237.929688 C 268.101562 238.027344 266.945312 238.027344 266.273438 238.316406 C 266.367188 238.21875 267.714844 238.125 266.65625 238.21875 C 266.464844 238.21875 266.273438 238.21875 266.078125 238.316406 C 265.597656 238.410156 265.117188 238.410156 264.734375 238.507812 C 264.15625 238.601562 263.578125 238.601562 263 238.699219 C 261.652344 238.796875 260.207031 238.988281 258.859375 239.082031 C 255.492188 239.371094 252.027344 239.660156 248.65625 239.949219 C 239.703125 240.71875 230.847656 241.390625 221.894531 242.160156 C 210.921875 243.027344 200.042969 243.890625 189.070312 244.660156 C 177.035156 245.523438 165.003906 246.292969 152.972656 247.0625 C 140.84375 247.832031 128.710938 248.410156 116.488281 248.984375 C 105.128906 249.464844 93.769531 249.851562 82.316406 250.042969 C 72.785156 250.140625 63.160156 250.140625 53.628906 249.753906 C 49.777344 249.5625 45.925781 249.371094 42.171875 249.082031 C 40.535156 248.890625 38.898438 248.792969 37.359375 248.601562 C 36.109375 248.410156 39.09375 248.890625 37.746094 248.601562 C 37.359375 248.503906 36.976562 248.503906 36.589844 248.410156 C 35.914062 248.3125 35.242188 248.21875 34.566406 248.023438 C 32.449219 247.640625 30.332031 247.0625 28.3125 246.390625 C 27.828125 246.199219 30.042969 247.160156 29.082031 246.679688 C 28.890625 246.582031 28.695312 246.488281 28.503906 246.390625 C 28.214844 246.199219 27.925781 246.003906 27.636719 245.8125 C 26.964844 245.429688 29.273438 247.257812 28.117188 246.199219 C 27.734375 245.910156 27.445312 245.523438 27.058594 245.140625 L 26.675781 244.660156 C 26.867188 244.660156 27.347656 245.71875 26.675781 244.660156 C 26.195312 243.890625 25.710938 243.121094 25.328125 242.351562 C 25.230469 242.160156 25.039062 241.679688 24.941406 241.582031 C 24.941406 241.582031 25.328125 242.640625 25.132812 241.96875 C 24.941406 241.390625 24.75 240.910156 24.558594 240.335938 C 23.304688 236.394531 22.726562 232.164062 22.148438 228.027344 C 21.378906 222.933594 20.609375 217.839844 19.839844 212.648438 C 19.648438 211.496094 19.550781 210.246094 19.359375 209.089844 C 19.359375 208.898438 19.167969 207.9375 19.359375 208.996094 C 19.359375 208.707031 19.261719 208.417969 19.261719 208.128906 C 19.167969 207.359375 19.070312 206.6875 18.972656 205.917969 C 18.683594 203.324219 18.300781 200.824219 18.011719 198.226562 C 17.433594 193.132812 16.855469 187.941406 16.277344 182.847656 C 14.160156 162.273438 12.714844 141.605469 12.042969 120.9375 C 11.851562 115.9375 11.753906 110.941406 11.65625 105.941406 C 11.65625 104.402344 11.65625 102.960938 11.753906 101.421875 C 11.753906 100.75 11.851562 100.171875 11.945312 99.5 C 11.753906 101.613281 11.945312 99.308594 12.140625 98.730469 C 12.234375 98.152344 12.429688 97.671875 12.523438 97.097656 C 12.621094 96.808594 12.714844 96.519531 12.8125 96.230469 C 12.910156 95.941406 13.390625 94.886719 12.910156 95.941406 C 12.429688 97 13.101562 95.460938 13.292969 95.171875 C 13.582031 94.691406 13.871094 94.210938 14.257812 93.730469 C 14.351562 93.539062 13.199219 94.886719 13.96875 94.117188 C 14.160156 93.925781 14.257812 93.730469 14.449219 93.636719 C 14.640625 93.445312 14.835938 93.25 15.027344 93.058594 C 15.21875 92.867188 16.085938 92.195312 15.21875 92.867188 C 14.257812 93.539062 15.699219 92.578125 15.988281 92.386719 C 16.566406 92 17.144531 91.714844 17.722656 91.425781 C 17.820312 91.328125 18.011719 91.328125 18.105469 91.230469 C 18.878906 90.847656 17.53125 91.519531 17.53125 91.519531 C 17.820312 91.425781 18.105469 91.328125 18.300781 91.230469 C 18.972656 90.945312 19.742188 90.75 20.515625 90.558594 C 22.054688 90.078125 23.691406 89.789062 25.230469 89.5 C 25.710938 89.40625 26.097656 89.40625 26.578125 89.308594 C 27.636719 89.117188 25.519531 89.40625 26.675781 89.308594 C 27.828125 89.214844 28.890625 89.019531 30.042969 88.925781 C 32.644531 88.636719 35.242188 88.445312 37.839844 88.15625 C 48.238281 87.195312 58.730469 86.136719 69.125 85.175781 C 90.015625 83.253906 110.808594 81.425781 131.699219 79.792969 C 152.585938 78.160156 173.476562 76.714844 194.363281 75.5625 C 204.855469 74.984375 215.253906 74.503906 225.746094 74.121094 C 235.566406 73.734375 245.480469 73.253906 255.296875 73.449219 C 256.9375 73.449219 258.667969 73.542969 260.304688 73.734375 C 261.074219 73.832031 261.84375 73.929688 262.613281 73.929688 C 263 73.929688 261.171875 73.734375 262.324219 73.929688 C 262.710938 74.023438 263.09375 74.023438 263.578125 74.121094 C 264.925781 74.3125 266.175781 74.601562 267.523438 74.984375 C 268.101562 75.179688 268.679688 75.371094 269.257812 75.5625 C 269.546875 75.660156 269.835938 75.753906 270.121094 75.851562 C 270.894531 76.140625 268.777344 75.179688 269.738281 75.753906 C 270.796875 76.234375 271.761719 76.714844 272.722656 77.390625 C 272.914062 77.582031 273.203125 77.675781 273.394531 77.871094 C 274.359375 78.542969 272.816406 77.390625 273.011719 77.582031 C 273.394531 77.964844 273.78125 78.253906 274.167969 78.640625 C 274.550781 79.023438 274.9375 79.40625 275.226562 79.792969 C 275.417969 79.984375 275.609375 80.175781 275.707031 80.371094 C 276.1875 80.945312 274.839844 79.121094 275.417969 79.984375 C 275.996094 80.851562 276.667969 81.8125 277.152344 82.773438 C 277.246094 83.0625 277.4375 83.253906 277.535156 83.542969 C 277.632812 83.734375 278.113281 84.792969 277.632812 83.734375 C 277.152344 82.675781 277.632812 83.734375 277.726562 84.023438 C 277.824219 84.3125 277.921875 84.597656 278.015625 84.886719 C 278.402344 86.136719 278.789062 87.289062 279.074219 88.539062 C 279.363281 89.886719 279.652344 91.328125 279.84375 92.675781 C 279.84375 92.867188 279.941406 93.058594 279.941406 93.347656 C 280.039062 94.019531 279.84375 92.480469 279.84375 92.578125 C 279.84375 92.960938 279.941406 93.347656 279.941406 93.730469 C 280.039062 94.5 280.132812 95.269531 280.132812 96.136719 C 281 105.75 281.097656 115.457031 281.386719 125.070312 C 282.058594 146.125 282.445312 167.175781 282.347656 188.230469 C 282.347656 198.324219 282.253906 208.417969 282.058594 218.609375 C 281.964844 221.589844 284.753906 224.472656 287.835938 224.375 C 291.109375 224.28125 293.613281 221.875 293.707031 218.703125 Z M 293.707031 218.703125 "/></g><path style=" stroke:none;fill-rule:nonzero;fill:#592525;fill-opacity:1;" d="M 270.21875 74.984375 C 267.714844 78.351562 265.214844 81.714844 262.710938 84.984375 C 262.035156 85.847656 261.460938 86.617188 260.785156 87.484375 C 260.6875 87.675781 260.496094 87.867188 260.398438 88.058594 C 260.015625 88.539062 260.59375 87.773438 260.59375 87.773438 C 260.207031 88.253906 259.824219 88.734375 259.535156 89.214844 C 258.28125 90.847656 256.933594 92.480469 255.683594 94.117188 C 250.484375 100.75 245.09375 107.285156 239.703125 113.726562 C 228.921875 126.511719 217.851562 139.011719 206.394531 151.21875 C 199.949219 158.140625 193.304688 164.871094 186.566406 171.597656 C 184.449219 173.714844 184.257812 177.65625 186.566406 179.769531 C 188.875 181.886719 192.4375 182.078125 194.75 179.769531 C 206.683594 167.851562 218.332031 155.640625 229.597656 143.046875 C 240.859375 130.453125 251.738281 117.574219 262.230469 104.402344 C 268.390625 96.617188 274.453125 88.828125 280.328125 80.851562 C 281.195312 79.695312 281.289062 77.675781 280.90625 76.429688 C 280.519531 75.082031 279.460938 73.640625 278.207031 72.96875 C 275.128906 71.332031 272.144531 72.390625 270.21875 74.984375 Z M 270.21875 74.984375 "/><path style=" stroke:none;fill-rule:nonzero;fill:#592525;fill-opacity:1;" d="M 6.171875 99.789062 C 19.261719 112.382812 33.027344 124.398438 47.273438 135.839844 C 61.8125 147.46875 76.730469 158.429688 92.230469 168.621094 C 100.796875 174.292969 109.460938 179.675781 118.316406 184.960938 C 120.917969 186.5 124.765625 185.632812 126.210938 182.847656 C 127.65625 180.058594 126.882812 176.597656 124.09375 174.964844 C 108.5 165.832031 93.386719 155.929688 78.65625 145.355469 C 75 142.664062 71.246094 139.972656 67.683594 137.28125 C 66.816406 136.605469 65.949219 135.933594 65.082031 135.355469 C 64.601562 134.972656 64.121094 134.683594 63.734375 134.300781 C 63.542969 134.109375 63.253906 133.914062 63.0625 133.820312 C 62.484375 133.433594 62.871094 133.625 63.160156 133.914062 C 61.328125 132.570312 59.5 131.03125 57.671875 129.683594 C 50.546875 124.109375 43.617188 118.339844 36.78125 112.382812 C 29.082031 105.75 21.574219 98.828125 14.257812 91.808594 C 12.042969 89.695312 8.191406 89.5 6.074219 91.808594 C 4.148438 93.925781 3.859375 97.578125 6.171875 99.789062 Z M 6.171875 99.789062 "/><path style=" stroke:none;fill-rule:nonzero;fill:#ef8989;fill-opacity:1;" d="M 158.941406 215.726562 C 140.265625 212.839844 106.285156 194.480469 104.9375 167.851562 C 104.261719 155.066406 113.023438 141.605469 125.632812 139.683594 C 135.742188 138.144531 146.039062 144.296875 150.757812 153.335938 C 155.570312 144.777344 164.234375 138.050781 174.148438 137.085938 C 183.96875 136.222656 193.789062 142.277344 197.539062 151.410156 C 203.222656 164.964844 198.40625 195.441406 158.941406 215.726562 Z M 158.941406 215.726562 "/><path style=" stroke:none;fill-rule:nonzero;fill:#592525;fill-opacity:1;" d="M 160.480469 210.148438 C 156.917969 209.570312 153.453125 208.609375 150.082031 207.457031 C 149.121094 207.167969 148.253906 206.785156 147.292969 206.398438 C 146.90625 206.207031 146.425781 206.015625 146.039062 205.917969 C 145.65625 205.726562 144.691406 205.246094 146.425781 206.109375 C 146.136719 206.015625 145.945312 205.917969 145.65625 205.824219 C 143.632812 204.957031 141.710938 203.996094 139.785156 202.9375 C 135.835938 200.824219 131.988281 198.421875 128.425781 195.730469 C 128.136719 195.535156 127.269531 194.769531 128.617188 195.921875 C 128.425781 195.824219 128.328125 195.632812 128.136719 195.535156 C 127.65625 195.152344 127.171875 194.769531 126.691406 194.382812 C 125.824219 193.710938 124.960938 192.941406 124.1875 192.171875 C 122.457031 190.632812 120.820312 189 119.375 187.171875 C 119.085938 186.789062 118.703125 186.402344 118.414062 186.019531 C 118.125 185.632812 117.066406 184.191406 118.21875 185.828125 C 117.546875 184.867188 116.777344 183.90625 116.199219 182.941406 C 115.042969 181.117188 113.984375 179.289062 113.117188 177.367188 C 112.925781 176.984375 112.636719 175.925781 113.214844 177.65625 C 113.117188 177.464844 113.023438 177.175781 112.925781 176.984375 C 112.734375 176.503906 112.542969 176.019531 112.347656 175.539062 C 111.964844 174.578125 111.675781 173.523438 111.480469 172.464844 C 111.195312 171.40625 111.097656 170.351562 110.90625 169.292969 C 111.289062 171.3125 111 169.582031 110.90625 169.101562 C 110.808594 168.332031 110.808594 167.65625 110.808594 166.890625 C 110.808594 165.734375 110.90625 164.679688 111 163.621094 C 111.097656 162.371094 110.710938 165.0625 111 163.8125 C 111.097656 163.523438 111.097656 163.140625 111.195312 162.851562 C 111.289062 162.179688 111.480469 161.503906 111.675781 160.929688 C 111.964844 159.773438 112.347656 158.621094 112.828125 157.46875 C 113.023438 157.082031 113.3125 156.796875 112.636719 157.949219 C 112.828125 157.660156 112.925781 157.371094 113.023438 157.082031 C 113.3125 156.507812 113.597656 155.929688 113.984375 155.351562 C 114.5625 154.296875 115.238281 153.335938 116.007812 152.277344 C 116.679688 151.316406 115.332031 153.140625 115.8125 152.566406 C 116.007812 152.371094 116.199219 152.179688 116.292969 151.890625 C 116.777344 151.316406 117.257812 150.835938 117.738281 150.355469 C 118.125 149.96875 118.605469 149.488281 119.085938 149.105469 C 119.28125 148.910156 119.472656 148.71875 119.664062 148.625 C 120.242188 148.144531 118.414062 149.488281 119.375 148.816406 C 120.433594 148.046875 121.492188 147.375 122.648438 146.796875 C 122.839844 146.699219 123.035156 146.605469 123.226562 146.507812 C 124.09375 146.027344 121.878906 146.988281 123.320312 146.507812 C 123.898438 146.316406 124.574219 146.125 125.152344 145.933594 C 125.824219 145.738281 126.402344 145.644531 127.078125 145.546875 C 128.230469 145.355469 125.632812 145.644531 126.882812 145.546875 C 127.367188 145.546875 127.847656 145.453125 128.328125 145.453125 C 129.003906 145.453125 129.773438 145.453125 130.445312 145.453125 C 130.734375 145.453125 131.214844 145.546875 131.503906 145.546875 C 131.214844 145.546875 130.925781 145.453125 130.636719 145.453125 C 130.832031 145.453125 131.121094 145.546875 131.3125 145.546875 C 132.851562 145.835938 134.296875 146.316406 135.738281 146.796875 C 136.316406 146.988281 135.933594 147.183594 135.355469 146.605469 C 135.644531 146.894531 136.316406 146.988281 136.605469 147.179688 C 137.28125 147.46875 137.859375 147.855469 138.433594 148.238281 C 139.011719 148.625 139.589844 149.007812 140.167969 149.394531 C 141.226562 150.160156 139.207031 148.527344 140.167969 149.394531 C 140.554688 149.679688 140.9375 149.96875 141.226562 150.355469 C 142.285156 151.316406 143.25 152.371094 144.210938 153.429688 C 145.078125 154.390625 143.441406 152.371094 144.210938 153.429688 C 144.40625 153.71875 144.597656 154.007812 144.789062 154.296875 C 145.269531 154.96875 145.65625 155.738281 146.039062 156.410156 C 148.0625 160.253906 153.933594 160.0625 156.050781 156.410156 C 156.726562 155.257812 157.398438 154.101562 158.167969 153.046875 C 158.265625 152.949219 158.265625 152.855469 158.363281 152.757812 C 158.746094 152.277344 158.652344 152.371094 158.074219 153.046875 C 158.265625 153.046875 158.652344 152.371094 158.746094 152.179688 C 159.230469 151.605469 159.710938 151.125 160.191406 150.546875 C 161.152344 149.585938 162.117188 148.71875 163.078125 147.855469 C 163.175781 147.757812 163.273438 147.664062 163.367188 147.664062 C 163.851562 147.277344 163.753906 147.375 163.078125 147.855469 C 163.175781 147.855469 163.65625 147.46875 163.65625 147.46875 C 164.332031 146.988281 165.003906 146.507812 165.773438 146.125 C 166.832031 145.453125 167.988281 144.875 169.144531 144.394531 C 169.914062 144.007812 167.796875 144.875 168.953125 144.488281 C 169.335938 144.394531 169.625 144.203125 169.914062 144.105469 C 170.585938 143.914062 171.261719 143.625 171.933594 143.527344 C 172.609375 143.335938 173.378906 143.242188 174.054688 143.046875 C 175.015625 142.855469 173.667969 143.144531 173.570312 143.144531 C 173.859375 143.242188 174.339844 143.046875 174.628906 143.046875 C 176.074219 142.953125 177.421875 143.242188 178.769531 143.144531 C 177.230469 143.242188 178 143.046875 178.578125 143.144531 C 178.769531 143.144531 179.058594 143.242188 179.25 143.242188 C 179.925781 143.433594 180.597656 143.527344 181.273438 143.816406 C 181.753906 144.007812 182.425781 144.394531 182.910156 144.394531 C 182.621094 144.296875 182.425781 144.203125 182.136719 144.105469 C 182.332031 144.203125 182.523438 144.296875 182.8125 144.394531 C 183.199219 144.585938 183.582031 144.777344 183.871094 144.96875 C 184.929688 145.546875 185.894531 146.316406 186.953125 146.894531 C 185.605469 146.125 186.566406 146.605469 186.855469 146.894531 C 187.144531 147.085938 187.433594 147.375 187.625 147.566406 C 188.109375 148.046875 188.683594 148.527344 189.070312 149.007812 C 189.261719 149.296875 189.550781 149.488281 189.742188 149.777344 C 189.839844 149.875 190.515625 150.835938 189.9375 149.96875 C 189.359375 149.199219 190.03125 150.066406 190.128906 150.257812 C 190.320312 150.546875 190.515625 150.835938 190.707031 151.125 C 190.996094 151.605469 191.285156 152.085938 191.574219 152.660156 C 191.765625 152.949219 191.859375 153.238281 192.054688 153.621094 C 192.148438 153.816406 192.246094 154.007812 192.34375 154.296875 C 191.957031 153.335938 191.859375 153.046875 192.054688 153.527344 C 192.4375 154.582031 192.824219 155.640625 193.015625 156.699219 C 193.113281 157.277344 193.304688 157.851562 193.402344 158.429688 C 193.5 158.71875 193.5 159.101562 193.59375 159.390625 C 193.59375 159.582031 193.402344 157.5625 193.5 158.332031 C 193.5 158.523438 193.59375 158.8125 193.59375 159.007812 C 193.691406 160.351562 193.785156 161.792969 193.785156 163.140625 C 193.785156 164.679688 193.59375 166.121094 193.5 167.5625 C 193.691406 165.253906 193.59375 166.890625 193.5 167.464844 C 193.402344 167.851562 193.402344 168.140625 193.304688 168.523438 C 193.113281 169.386719 192.921875 170.253906 192.726562 171.117188 C 192.34375 172.753906 191.859375 174.386719 191.285156 175.925781 C 191.089844 176.40625 190.996094 176.789062 190.804688 177.273438 C 190.609375 177.753906 189.9375 179.195312 190.804688 177.273438 C 190.417969 178.234375 189.9375 179.097656 189.550781 179.964844 C 188.683594 181.789062 187.625 183.519531 186.566406 185.25 C 186.085938 186.019531 185.507812 186.789062 185.027344 187.558594 C 184.738281 188.039062 184.351562 188.519531 183.96875 188.902344 C 183.777344 189.191406 183.003906 190.054688 184.160156 188.613281 C 183.96875 188.808594 183.777344 189.09375 183.582031 189.289062 C 180.117188 193.613281 176.171875 197.460938 171.933594 200.824219 C 171.648438 201.015625 171.261719 201.207031 171.070312 201.496094 C 171.261719 201.304688 171.453125 201.207031 171.648438 201.015625 C 171.453125 201.207031 171.261719 201.304688 171.070312 201.496094 C 170.394531 201.976562 169.816406 202.457031 169.144531 202.9375 C 167.890625 203.898438 166.542969 204.765625 165.195312 205.632812 C 162.210938 207.554688 159.132812 209.285156 156.050781 210.917969 C 153.355469 212.265625 152.394531 216.300781 153.933594 218.800781 C 155.667969 221.492188 158.941406 222.359375 161.828125 220.914062 C 180.40625 211.398438 197.636719 196.113281 203.414062 175.445312 C 205.339844 168.621094 205.820312 161.3125 204.375 154.296875 C 202.160156 143.722656 193.402344 134.972656 182.910156 132.378906 C 167.988281 128.628906 152.972656 137.855469 145.75 150.640625 C 149.121094 150.640625 152.394531 150.640625 155.761719 150.640625 C 149.507812 139.011719 135.933594 131.800781 122.839844 134.589844 C 111.097656 137.085938 102.242188 148.144531 99.929688 159.582031 C 95.503906 181.597656 112.253906 200.246094 129.867188 210.726562 C 134.585938 213.511719 139.589844 215.917969 144.789062 217.933594 C 148.832031 219.472656 153.066406 220.820312 157.398438 221.492188 C 158.941406 221.78125 160.382812 221.78125 161.828125 220.914062 C 162.980469 220.242188 164.136719 218.800781 164.523438 217.453125 C 165.101562 214.472656 163.65625 210.628906 160.480469 210.148438 Z M 160.480469 210.148438 "/></g></svg>